<svg xmlns="http://www.w3.org/2000/svg" viewBox="0 0 1115 121" width="1115" height="121" role="img" aria-label="ANANSI wordmark monochrome black">
<title>ANANSI Wordmark - Black</title>
<g id="anansi-wordmark">
<path d="M 875 28 L 871 38 L 873 54 L 880 63 L 890 68 L 969 69 L 974 71 L 979 78 L 978 86 L 970 92 L 876 93 L 876 108 L 972 108 L 982 105 L 993 95 L 997 84 L 996 72 L 991 63 L 979 55 L 897 53 L 888 44 L 890 36 L 902 30 L 986 30 L 986 15 L 896 15 L 885 19 Z" fill="#050505"/>
<path d="M 228 15 L 228 108 L 246 108 L 247 31 L 259 32 L 272 39 L 316 93 L 329 103 L 344 108 L 363 108 L 363 15 L 346 15 L 345 90 L 337 87 L 327 77 L 296 37 L 281 24 L 257 15 Z" fill="#050505"/>
<path d="M 663 15 L 663 108 L 680 108 L 680 33 L 682 31 L 693 33 L 704 40 L 755 100 L 770 107 L 794 108 L 794 15 L 777 15 L 776 90 L 768 87 L 755 74 L 729 40 L 710 23 L 688 15 Z" fill="#050505"/>
<path d="M 14 107 L 36 107 L 82 33 L 128 108 L 150 108 L 92 15 L 72 15 Z" fill="#050505"/>
<path d="M 1085 15 L 1085 108 L 1103 108 L 1103 15 Z" fill="#050505"/>
<path d="M 447 108 L 469 107 L 516 33 L 518 33 L 565 108 L 586 108 L 526 15 L 509 15 Z" fill="#050505"/>
</g>
</svg>