<svg xmlns="http://www.w3.org/2000/svg" width="1000" height="788" viewBox="0 0 1000.00 787.84">
<rect width="100%" height="100%" fill="#FFFFFF"/>
<g transform="translate(307.56 40.00) scale(0.618785)">
<path d="M 218 547 L 178 561 L 175 576 L 127 618 L 107 732 L 124 779 L 135 783 L 135 789 L 119 782 L 101 729 L 122 615 L 170 573 L 171 564 L 120 585 L 90 600 L 72 709 L 74 719 L 157 897 L 161 899 L 186 899 L 189 897 L 189 892 L 143 766 L 128 714 L 140 646 L 199 574 Z" fill="#050505"/>
<path d="M 408 546 L 409 552 L 486 646 L 497 715 L 485 757 L 435 892 L 435 896 L 438 899 L 462 899 L 467 895 L 542 740 L 552 714 L 544 646 L 537 604 L 534 598 L 456 564 L 456 573 L 505 616 L 525 729 L 507 783 L 491 789 L 491 784 L 501 780 L 519 732 L 499 618 L 451 575 L 449 561 Z" fill="#050505"/>
<path d="M 458 532 L 543 541 L 533 523 L 466 523 Z" fill="#050505"/>
<path d="M 83 541 L 168 532 L 160 523 L 93 523 Z" fill="#050505"/>
<path d="M 615 403 L 612 401 L 599 401 L 525 482 L 450 508 L 405 527 L 451 532 L 463 518 L 536 518 L 550 541 L 559 541 L 615 410 Z" fill="#050505"/>
<path d="M 8 403 L 8 410 L 63 540 L 75 541 L 90 518 L 163 518 L 175 532 L 220 527 L 183 511 L 101 481 L 27 401 L 10 401 Z" fill="#050505"/>
<path d="M 215 395 L 273 532 L 228 716 L 227 730 L 300 896 L 305 899 L 320 899 L 325 896 L 398 726 L 353 530 L 411 395 L 316 462 L 242 411 Z" fill="#050505"/>
<path d="M 478 126 L 498 200 L 512 280 L 473 337 L 429 409 L 402 463 L 382 510 L 383 512 L 404 497 L 468 440 L 470 369 L 527 294 L 487 129 Z" fill="#050505"/>
<path d="M 146 126 L 139 130 L 100 294 L 157 370 L 159 441 L 243 512 L 244 509 L 233 481 L 198 409 L 157 341 L 115 279 L 129 198 L 149 127 Z" fill="#050505"/>
<path d="M 416 7 L 414 12 L 452 68 L 476 119 L 488 123 L 492 127 L 533 293 L 525 307 L 476 370 L 474 398 L 475 434 L 510 399 L 533 372 L 576 308 L 559 240 L 510 87 L 465 39 L 430 7 Z" fill="#050505"/>
<path d="M 214 7 L 199 8 L 118 88 L 72 225 L 51 302 L 51 308 L 90 366 L 122 404 L 152 434 L 151 371 L 94 296 L 134 128 L 137 124 L 151 119 L 169 79 L 195 38 L 216 9 Z" fill="#050505"/>
<path d="M 186 260 L 207 372 L 314 447 L 419 372 L 441 260 L 387 311 L 383 354 L 314 425 L 243 353 L 239 311 Z" fill="#C1121F"/>
<path d="M 313 166 L 272 273 L 263 354 L 315 407 L 363 355 L 353 267 Z" fill="#C1121F"/>
</g>
<g transform="translate(40.00 648.00) scale(0.825112)">
<title>ANANSI Wordmark</title>
<g id="anansi-wordmark">
<path d="M 875 28 L 871 38 L 873 54 L 880 63 L 890 68 L 969 69 L 974 71 L 979 78 L 978 86 L 970 92 L 876 93 L 876 108 L 972 108 L 982 105 L 993 95 L 997 84 L 996 72 L 991 63 L 979 55 L 897 53 L 888 44 L 890 36 L 902 30 L 986 30 L 986 15 L 896 15 L 885 19 Z" fill="#050505"/>
<path d="M 228 15 L 228 108 L 246 108 L 247 31 L 259 32 L 272 39 L 316 93 L 329 103 L 344 108 L 363 108 L 363 15 L 346 15 L 345 90 L 337 87 L 327 77 L 296 37 L 281 24 L 257 15 Z" fill="#050505"/>
<path d="M 663 15 L 663 108 L 680 108 L 680 33 L 682 31 L 693 33 L 704 40 L 755 100 L 770 107 L 794 108 L 794 15 L 777 15 L 776 90 L 768 87 L 755 74 L 729 40 L 710 23 L 688 15 Z" fill="#050505"/>
<path d="M 14 107 L 36 107 L 82 33 L 128 108 L 150 108 L 92 15 L 72 15 Z" fill="#050505"/>
<path d="M 1085 15 L 1085 108 L 1103 108 L 1103 15 Z" fill="#050505"/>
<path d="M 447 108 L 469 107 L 516 33 L 518 33 L 565 108 L 586 108 L 526 15 L 509 15 Z" fill="#C1121F"/>
</g>
</g>
</svg>